HIERARCHY
ROOT ui
{
	 OFFSET 0 0 0
	 CHANNELS 3 XPosition YPosition Z Position
	 EndSite
	 {
	 OFFSET 0 -1 0
	 }
}
ROOT li
{
	 OFFSET 0 0 0
	 CHANNELS 3 XPosition YPosition Z Position
	 EndSite
	 {
	 OFFSET 0 -1 0
	 }
}
ROOT ul
{
	 OFFSET 0 0 0
	 CHANNELS 3 XPosition YPosition Z Position
	 EndSite
	 {
	 OFFSET 0 -1 0
	 }
}
ROOT ll
{
	 OFFSET 0 0 0
	 CHANNELS 3 XPosition YPosition Z Position
	 EndSite
	 {
	 OFFSET 0 -1 0
	 }
}
ROOT tt
{
	 OFFSET 0 0 0
	 CHANNELS 3 XPosition YPosition Z Position
	 EndSite
	 {
	 OFFSET 0 -1 0
	 }
}
ROOT tb
{
	 OFFSET 0 0 0
	 CHANNELS 3 XPosition YPosition Z Position
	 EndSite
	 {
	 OFFSET 0 -1 0
	 }
}
ROOT td
{
	 OFFSET 0 0 0
	 CHANNELS 3 XPosition YPosition Z Position
	 EndSite
	 {
	 OFFSET 0 -1 0
	 }
}
ROOT v
{
	 OFFSET 0 0 0
	 CHANNELS 3 XPosition YPosition Z Position
	 EndSite
	 {
	 OFFSET 0 -1 0
	 }
}
ROOT bn
{
	 OFFSET 0 0 0
	 CHANNELS 3 XPosition YPosition Z Position
	 EndSite
	 {
	 OFFSET 0 -1 0
	 }
}
MOTION
Frames: 24
Frame Time: 0.002
0.001052117943763733	-2.505429983139038E-4	0		0.6019011840820313	-2.557267822265625	0		-1.0535731201171874	-0.041560245513916017	0		-0.5091348876953125	-2.62984765625	0		1.5780760498046875	-0.7787930297851563	0		3.304748046875	-0.276170654296875	0		4.62523388671875	-0.09330107116699218	0		5.711775390625	0.19306410217285155	0		-0.16495529174804688	5.93040478515625	0		
0.02189067840576172	-0.004497667789459228	0		0.6077444458007812	-2.568298095703125	0		-1.0556793212890625	-0.04154869842529297	0		-0.513171630859375	-2.6317900390625	0		1.5759969482421874	-0.7786846923828125	0		3.307559326171875	-0.2830629272460938	0		4.63110302734375	-0.09518405151367187	0		5.7044326171875	0.16774313354492187	0		-0.20036903381347657	5.923876953125	0		
-0.0071812219619750975	-0.00410385799407959	0		0.609823974609375	-2.563284423828125	0		-1.04866259765625	-0.03465793228149414	0		-0.5042583312988281	-2.639905029296875	0		1.5769884033203125	-0.775624267578125	0		3.294676513671875	-0.2687622375488281	0		4.63310888671875	-0.08903022003173829	0		5.71172802734375	0.20768003845214844	0		-0.18849624633789064	5.935732421875	0		
0.02488896369934082	0.0024954299926757814	0		0.6000330200195313	-2.552124267578125	0		-1.0466275634765625	-0.030706117630004883	0		-0.5510179443359375	-2.626304931640625	0		1.581086181640625	-0.7686124877929688	0		3.288488037109375	-0.2825635986328125	0		4.62312109375	-0.08673751831054688	0		5.70152392578125	0.16854771423339843	0		-0.18972096252441406	5.934751953125	0		
0.025987834930419923	0.0054890022277832035	0		0.598171875	-2.552074462890625	0		-1.04856591796875	-0.03070659065246582	0		-0.5209693603515625	-2.63370068359375	0		1.576132080078125	-0.7714935913085937	0		3.29971044921875	-0.2705992431640625	0		4.6211845703125	-0.08656422424316407	0		5.70014453125	0.16890213012695313	0		-0.15776792907714843	5.94034033203125	0		
0.014015710830688477	-0.004356264114379883	0		0.594375	-2.55400634765625	0		-1.0544605712890625	-0.03466009521484375	0		-0.524763916015625	-2.6356650390625	0		1.5743095703125	-0.7714234619140625	0		3.294809814453125	-0.2754407653808594	0		4.62932861328125	-0.08753484344482422	0		5.69883251953125	0.1692257080078125	0		-0.161757080078125	5.94238623046875	0		
0.01531597900390625	-0.0013767420053482056	0		0.5906674194335938	-2.55694677734375	0		-1.0561976318359374	-0.034670646667480466	0		-0.541378662109375	-2.6314697265625	0		1.5695413818359376	-0.7753246459960937	0		3.27317041015625	-0.26807916259765624	0		4.62067041015625	-0.08130364227294921	0		5.69759619140625	0.1695189971923828	0		-0.19575442504882812	5.9348095703125	0		
0.010653926849365234	-0.004327578067779541	0		0.5740706787109375	-2.55972998046875	0		-1.1307509765625	-0.028755313873291017	0		-0.5659728393554687	-2.63417919921875	0		1.5709876708984376	-0.7713135375976562	0		3.30839697265625	-0.2804579772949219	0		4.61295947265625	-0.08809986114501953	0		5.69644189453125	0.16978273010253905	0		-0.1814015350341797	5.94460986328125	0		
0.003161118984222412	-0.0032479770183563234	0		0.6026354370117187	-2.559095947265625	0		-1.051224853515625	-0.02681171417236328	0		-0.5274071655273438	-2.633699462890625	0		1.58051171875	-0.7704136352539063	0		3.29117919921875	-0.258174560546875	0		4.6175439453125	-0.08106473541259765	0		5.6911826171875	0.18744998168945312	0		-0.14996188354492188	5.95118701171875	0		
0.014849522590637206	0.0025829079151153565	0		0.5924208984375	-2.549971923828125	0		-1.0526112060546875	-0.026838491439819336	0		-0.5436831665039062	-2.629524169921875	0		1.57116796875	-0.768280029296875	0		3.2735830078125	-0.27489944458007814	0		4.62308203125	-0.08705350494384766	0		5.6872802734375	0.17564109802246095	0		-0.20069403076171874	5.93480517578125	0		
0.013580666542053223	0.0025750489234924318	0		0.6141151123046875	-2.55725927734375	0		-1.057929931640625	-0.030817745208740234	0		-0.5380494995117188	-2.641631591796875	0		1.5668775634765626	-0.7712167358398437	0		3.27538330078125	-0.2698770446777344	0		4.62181494140625	-0.08696412658691406	0		5.69058447265625	0.16186183166503906	0		-0.18315310668945312	5.92955224609375	0		
-0.014571288108825683	0.002905904054641724	0		0.5860523681640625	-2.55391650390625	0		-1.0590833740234376	-0.030850711822509765	0		-0.5161145629882813	-2.638946044921875	0		1.5657388916015624	-0.7711972045898438	0		3.286170166015625	-0.27497515869140626	0		4.61067626953125	-0.08575682830810546	0		5.68263232421875	0.1622557373046875	0		-0.20336076354980467	5.93477685546875	0		
0.004294235229492188	-0.004361782073974609	0		0.59696728515625	-2.561071533203125	0		-1.060126953125	-0.030885623931884765	0		-0.5401445922851562	-2.64167919921875	0		1.5736707763671876	-0.7742958374023438	0		3.27737255859375	-0.25582745361328124	0		4.61269677734375	-0.08072202301025391	0		5.68902197265625	0.16219679260253905	0		-0.2045181121826172	5.93475830078125	0		
-0.012516873359680176	0.005822644233703613	0		0.571140869140625	-2.555761962890625	0		-1.0570150146484374	-0.026973234176635743	0		-0.5410347290039063	-2.641706298828125	0		1.569872802734375	-0.764246826171875	0		3.278172607421875	-0.2768077697753906	0		4.61667041015625	-0.08771675872802734	0		5.68122314453125	0.162565673828125	0		-0.17149334716796874	5.94030712890625	0		
0.009605982780456542	0.0025129001140594483	0		0.5874243774414063	-2.549986083984375	0		-1.061902099609375	-0.030960977554321287	0		-0.54386181640625	-2.6447099609375	0		1.56904931640625	-0.7642376708984375	0		3.313564697265625	-0.2592235412597656	0		4.6219228515625	-0.08072854614257813	0		5.6848623046875	0.1539286346435547	0		-0.17243861389160156	5.94028466796875	0		
0.008866894721984863	0.0024912359714508057	0		0.5847066040039063	-2.551971923828125	0		-1.0626405029296875	-0.031002103805541994	0		-0.5235292358398438	-2.643006591796875	0		1.5652740478515625	-0.76819287109375	0		3.26578369140625	-0.26259228515625	0		4.6022119140625	-0.07842704010009766	0		5.6729990234375	0.16825563049316405	0		-0.1732855529785156	5.940259765625	0		
0.010020307540893555	-0.013557581901550294	0		0.5919691162109375	-2.563086181640625	0		-1.063284912109375	-0.031046588897705077	0		-0.5631480102539063	-2.64455029296875	0		1.56464306640625	-0.7681893310546875	0		3.280142333984375	-0.2627465515136719	0		4.60954248046875	-0.08046857452392578	0		5.6696259765625	0.1563677673339844	0		-0.20811187744140625	5.93466015625	0		
-0.019332630157470703	0.0027771689891815184	0		0.5566258544921875	-2.5496650390625	0		-1.059791015625	-0.02714548110961914	0		-0.561618408203125	-2.64161474609375	0		1.570024658203125	-0.7742642211914063	0		3.28338916015625	-0.27876394653320313	0		4.60289990234375	-0.08733653259277344	0		5.67925146484375	0.1631115264892578	0		-0.19265322875976562	5.94442529296875	0		
0.010227972984313966	0.005367993831634521	0		0.5981448974609375	-2.554213623046875	0		-1.1291593017578125	-0.01833161163330078	0		-0.5810426635742187	-2.64141845703125	0		1.5777017822265624	-0.763368408203125	0		3.282183349609375	-0.2577242431640625	0		4.61258935546875	-0.07440985107421876	0		5.6789423828125	0.16842584228515625	0		-0.17528958129882813	5.9401640625	0		
0.019715362548828125	-0.003791062116622925	0		0.5848446655273437	-2.550074462890625	0		-1.06066357421875	-0.027251449584960938	0		-0.5603690185546875	-2.639727294921875	0		1.566305419921875	-0.7642357177734375	0		3.254640869140625	-0.2693584289550781	0		4.60811669921875	-0.08030803680419922	0		5.66861328125	0.15674142456054688	0		-0.19093569946289063	5.9293154296875	0		
-0.02053661346435547	0.002672619104385376	0		0.582536865234375	-2.5520751953125	0		-1.1379873046875	-0.02634428024291992	0		-0.5755990600585937	-2.635587158203125	0		1.570913818359375	-0.7703056030273437	0		3.2784013671875	-0.26263577270507815	0		4.61471240234375	-0.08634647369384765	0		5.672587890625	0.14288890075683594	0		-0.19137603759765626	5.92927490234375	0		
-0.023843151092529297	-3.288779854774475E-4	0		0.5823143310546876	-2.552103271484375	0		-1.065311767578125	-0.03131593132019043	0		-0.5330233764648438	-2.652172607421875	0		1.57065869140625	-0.770315673828125	0		3.26805029296875	-0.2694891052246094	0		4.60752001953125	-0.08021385955810546	0		5.66471435546875	0.17437477111816407	0		-0.22582609558105468	5.92365771484375	0		
0.011815302848815918	-0.010818341255187987	0		0.5930576782226562	-2.559270263671875	0		-1.138469482421875	-0.02646482276916504	0		-0.5691497192382813	-2.648773681640625	0		1.57045849609375	-0.7703282470703126	0		3.267103271484375	-0.24846052551269532	0		4.618306640625	-0.08030949401855468	0		5.668041015625	0.15707089233398439	0		-0.21100962829589845	5.93442529296875	0		
0.005815907955169678	0.002214207887649536	0		0.5860775146484375	-2.548215087890625	0		-1.0575999755859375	-0.024535581588745116	0		-0.5672412109375	-2.64685009765625	0		1.5763966064453125	-0.7634178466796875	0		3.276657958984375	-0.2715682678222656	0		4.60714697265625	-0.08013396453857421	0		5.667927734375	0.15716694641113282	0		-0.1923380889892578	5.92914404296875	0		
